
<svg xmlns="http://www.w3.org/2000/svg" width="294.61" height="51.2" viewBox="0 0 294.61 51.2"><path d="M126.84 26.37c.24-4.37 3.01-6.74 7.21-6.74s6.54 1.92 6.54 5.85v13.83c0 .68.16 1.56.28 2.28h-4.29c-.04-.6-.2-1.16-.24-1.68-1.68 1.36-3.09 2.08-5.25 2.08-3.05 0-4.57-2.08-4.57-4.85 0-4.73 3.13-7.34 9.58-9.78v-1.28c0-1.8-.72-2.77-2.21-2.77-2.04 0-2.48 1.2-2.57 3.05h-4.49Zm9.26 4.29c-4.09 2.33-5.09 3.81-5.09 5.69 0 1.4.72 1.96 2.08 1.96 1.24 0 2.24-.92 3.01-2.01v-5.65ZM162.96 41.6V24.88c0-1.08-.68-1.56-1.56-1.56-.96 0-1.84.6-2.89 1.36V41.6h-4.49V20.03h4.25v2.17c1.88-1.6 2.85-2.57 4.97-2.57 2.24 0 2.97.8 3.93 2.57 2.17-2.09 3.37-2.57 5.01-2.57 2.81 0 4.21 1.72 4.21 4.53V41.6h-4.49V24.88c0-1.08-.72-1.56-1.6-1.56-.96 0-1.84.6-2.85 1.36V41.6h-4.49ZM180.28 26.37c.24-4.37 3.01-6.74 7.21-6.74s6.54 1.92 6.54 5.85v13.83c0 .68.16 1.56.28 2.28h-4.29c-.04-.6-.2-1.16-.24-1.68-1.68 1.36-3.09 2.08-5.25 2.08-3.05 0-4.57-2.08-4.57-4.85 0-4.73 3.13-7.34 9.58-9.78v-1.28c0-1.8-.72-2.77-2.21-2.77-2.04 0-2.48 1.2-2.57 3.05h-4.49Zm9.26 4.29c-4.09 2.33-5.09 3.81-5.09 5.69 0 1.4.72 1.96 2.08 1.96 1.24 0 2.24-.92 3.01-2.01v-5.65ZM198.56 41.6V20.03h4.29v2.52h.08c1.08-1.84 2.97-2.93 5.09-2.93h.92v4.69c-.8-.2-1.56-.44-2.89-.44-1.52 0-3.01.96-3.01 2.89v14.83h-4.49ZM211.5 23.73v-3.69h12.63v3.69l-8.38 14.19h8.38v3.68h-13.19v-3.68l8.22-14.19h-7.66zM227.26 27.65c0-4.73 1.84-8.02 6.98-8.02s6.98 3.29 6.98 8.02v6.33c0 4.73-1.84 8.02-6.98 8.02s-6.98-3.29-6.98-8.02v-6.33Zm9.46-.8c0-2.48-.88-3.53-2.49-3.53s-2.49 1.04-2.49 3.53v7.94c0 2.49.88 3.53 2.49 3.53s2.49-1.04 2.49-3.53v-7.94ZM254.52 27.41v-.56c0-2.49-.88-3.53-2.49-3.53s-2.48 1.04-2.48 3.53v7.94c0 2.49.88 3.53 2.48 3.53s2.49-1.04 2.49-3.53v-1.36h4.49v.56c0 4.73-1.84 8.02-6.98 8.02s-6.98-3.29-6.98-8.02v-6.33c0-4.73 1.84-8.02 6.98-8.02s6.9 3.17 6.98 7.78h-4.49ZM272.32 27.41v-.56c0-2.49-.88-3.53-2.49-3.53s-2.49 1.04-2.49 3.53v7.94c0 2.49.88 3.53 2.49 3.53s2.49-1.04 2.49-3.53v-1.36h4.49v.56c0 4.73-1.84 8.02-6.98 8.02s-6.98-3.29-6.98-8.02v-6.33c0-4.73 1.84-8.02 6.98-8.02s6.89 3.17 6.98 7.78h-4.49ZM280.66 27.65c0-4.73 1.84-8.02 6.98-8.02s6.98 3.29 6.98 8.02v6.33c0 4.73-1.84 8.02-6.98 8.02s-6.98-3.29-6.98-8.02v-6.33Zm9.46-.8c0-2.48-.88-3.53-2.49-3.53s-2.49 1.04-2.49 3.53v7.94c0 2.49.88 3.53 2.49 3.53s2.49-1.04 2.49-3.53v-7.94ZM53.8 6.2l-.73 2.59-1.63-2.62 2.36.03z"/><path d="M105.23 28.64c-.01-4.56-8.58-7.49-15.76-9.14-.64-.15-1.29-.29-1.96-.43-1.9-2.42-4.54-4.65-7.86-6.57-5.24-3.04-11.73-5.07-18.78-5.96l.26-1.1-.58-3.38L59 1.97 56.75.01l-4.13.71-2.31.33-2.44 1.47-.53 3.11-1.45.74c-7.6.79-14.61 2.89-20.2 6.13-3.32 1.92-5.96 4.15-7.86 6.57-.68.14-1.35.28-2 .43C8.89 21.09.68 23.88.12 28.19c-.07.17-.12.34-.12.53v.02c0 .19.06.36.14.53.73 4.22 8.83 6.96 15.69 8.54.7.16 1.43.32 2.17.47 1.89 2.33 4.47 4.47 7.69 6.34 5.82 3.38 13.2 5.5 21.17 6.21l.02.05c1.09.09 2.01.15 2.89.19.95.1 1.91.15 2.89.15 1.11 0 2.21-.07 3.29-.19 8.95-.44 17.26-2.67 23.7-6.4 3.22-1.87 5.8-4.01 7.69-6.35.73-.15 1.44-.3 2.13-.46 6.93-1.59 15.13-4.38 15.71-8.67.04-.13.07-.27.07-.42 0-.03-.01-.05-.01-.07m-16.1-7.67c6.98 1.6 11.81 3.66 13.7 5.75-.63-.2-1.39-.4-2.32-.59-2.42-.5-5.8-.96-10.03-1.36-.38-1.33-.94-2.62-1.7-3.88.12.03.23.05.35.08m-11.31 4.58c3.63.18 7.04.4 10.14.65.5.04.96.08 1.42.12.13.73.21 1.47.21 2.22 0 .86-.09 1.71-.27 2.54-.45.04-.89.08-1.37.12-3.11.26-6.52.48-10.17.65.17-1.06.27-2.15.27-3.26 0-1.04-.09-2.06-.24-3.06m8.95-5.09c.97 1.33 1.7 2.72 2.18 4.17-3.46-.3-7.31-.55-11.45-.75-.44-1.81-1.11-3.54-2.01-5.16 4.04.46 7.84 1.04 11.28 1.74M66.75 33.93c3.22-.08 6.33-.19 9.31-.32-.5 1.82-1.26 3.55-2.25 5.15-2.93.3-5.97.54-9.11.71l2.12-5.19-.07-.35Zm-.33-1.65-.37-1.82L62.4 30l.22-4.95c4.84.08 9.5.23 13.86.43.17 1.02.26 2.06.26 3.13 0 1.13-.1 2.24-.29 3.32-3.19.15-6.55.26-10.02.35m-4.78-14.6c4.24.17 8.34.46 12.22.86 1 1.64 1.76 3.41 2.25 5.27-4.23-.19-8.73-.33-13.42-.41l.09-1.95-1.14-3.78Zm23.6.95c-3.33-.62-6.93-1.13-10.75-1.54-2.45-3.65-6.02-6.64-10.29-8.59 9.07 1.71 16.59 5.38 21.04 10.12m-38.83-5.39.28-5.32 2.1-1.17.33-1.75c.8-.33 1.53-.76 1.53-.76l-.58-.88 1-1.32 1.62.46.9 1.24 1.8-.6 1.84.25.45.55 1.23-.7.7.02.26 1.28h-1.69l.9 1.09-.24.89-1.43-.38-.94.76.9 3.14-2.24-.05 1.44 1.37c-.18.34-.54.93-.54.93l-.83-.19-1.01-.75-1.5.59.45 1.4 1.04.78 1.11-.56 1.17.2.33.58-.83 1.22-1.55.03-2.92-2.94-.04-2.86-1.04.37-.39 5.11-2.62 2.3v5.66l-1.47-.44v-5.54l3-2.74.38-5.42.99-.44V7.47L48.04 8.5l-.32 5.36-2.95 2.95v5.57l-1.31-.36-.02-5.8 2.97-2.99Zm12.23-1.85-.9 1.47-.58-.32v-1.09l1.47-.07ZM50 23.94l-1.41-.45V18.3l2.69-2.24.19-1.35.96.9-.13 1.15-2.31 1.93v5.24Zm-.65 4.3-.82.87-1.86-1.79-.76.69 1.79 1.78-1.2.57-4.64-4 1.61-3.05 6.1 2.1.05 1.54-1.64-1.25s-.41.43-.55.73c.75.66 1.92 1.82 1.92 1.82m-7.33 4.11c-4.58-.08-8.99-.22-13.14-.41-.19-1.08-.3-2.2-.3-3.33 0-1.06.09-2.11.26-3.13 3.8-.17 7.83-.3 12.01-.39l-.79 1.53 3.49 3.25-1.54 2.48Zm.58 7.22c-3.84-.17-7.55-.45-11.09-.81-.99-1.6-1.75-3.33-2.24-5.15 3.91.17 8.05.3 12.34.39l.99 5.58ZM29.21 23.82a19.81 19.81 0 0 1 2.25-5.27c3.3-.34 6.76-.6 10.33-.78v5.54l-.06.12c-4.36.08-8.56.21-12.52.39m22.04-4.21 2.21-1.83.13-1.5 1.12 1.14-.06 1.19-1.99 1.66-.02 4.44-1.4-.45.02-4.66Zm4.71-.26.03-1.03 1.06.93v1.02l-1.79 1.57v3.64l-1.41-.38v-3.93l2.11-1.82Zm-11.24-6.76-2.93 3v.67c-3.17.15-6.25.37-9.22.66C35.5 13 39.87 9.99 45 8.46l-.27 4.12ZM41.1 8.52c-4.27 1.95-7.83 4.93-10.28 8.58-3.81.4-7.4.92-10.72 1.53 4.44-4.74 11.95-8.4 21-10.11M18.57 20.47c3.44-.7 7.22-1.28 11.26-1.74-.89 1.62-1.57 3.35-2.01 5.16-4.13.2-7.97.45-11.43.75.48-1.45 1.21-2.84 2.18-4.17m8.95 11.42c-3.66-.18-7.11-.4-10.24-.66-.44-.04-.85-.07-1.27-.11-.18-.84-.28-1.69-.28-2.55 0-.75.08-1.5.21-2.23.44-.04.87-.08 1.33-.12 3.12-.26 6.55-.48 10.21-.66-.15 1-.24 2.02-.24 3.07 0 1.11.09 2.2.27 3.26M16.16 20.98c.12-.03.26-.06.38-.08a15.84 15.84 0 0 0-1.71 3.88c-4.27.4-7.68.86-10.12 1.37-.88.18-1.62.37-2.23.56 1.91-2.08 6.72-4.12 13.67-5.72M1.87 28.71c.73-.41 3.38-1.36 12.6-2.25-.11.69-.17 1.39-.17 2.1 0 .81.08 1.62.22 2.41-9.26-.89-11.92-1.85-12.65-2.26m14.3 7.62C9.4 34.78 4.66 32.8 2.65 30.77c.59.18 1.29.35 2.12.52 2.45.51 5.88.97 10.17 1.37.4 1.3.99 2.56 1.76 3.78-.18-.04-.36-.08-.53-.12m2.57.55c-.98-1.3-1.73-2.66-2.24-4.07 3.45.3 7.27.55 11.37.74.45 1.77 1.12 3.45 2 5.04-3.99-.45-7.72-1.02-11.13-1.71m1.58 1.84c3.27.6 6.81 1.1 10.55 1.5 2.35 3.48 5.73 6.35 9.75 8.29-8.69-1.72-15.92-5.24-20.3-9.78m12.3 1.67c3.32.32 6.8.56 10.36.71l2.81 7.14.35.84c-5.59-1.39-10.37-4.52-13.52-8.69m22.42-.51c-1.1 3.43-3.55 9.7-3.55 9.7l-3.38-.17-3.42-9.22-1.24-6.54 1.78-2.69s.28.42.82.89l3.29-1.79 1.65-1.92h2.33l3.02 5.35s-.91 4.12-1.3 6.39m5.47 9.31-1.35.17v-2.73l-1.34.07v2.75l-1.35.13v-8.97l1.1-4.5 2.42-1.83-.82 12.42h1.35v2.5Zm.84-40.02-.37-.52c4.85 1.58 8.97 4.51 11.79 8.26-3.7-.35-7.58-.61-11.57-.76l-.66-2.19.82-4.79Zm.83 22.62 2.35.29.47 2.18-4.06 10.06 1.24-12.53Zm.83 17.02-1.22.19v-2.31h1.22s-.03 1.67 0 2.11m-.6-3.68L64.09 41c2.96-.15 5.84-.36 8.62-.63-2.14 2.84-5.04 5.19-8.43 6.85v-2.08l-1.87-.02Zm2.27 3.38c4.04-1.93 7.42-4.81 9.78-8.3 3.75-.4 7.3-.9 10.58-1.5-4.39 4.55-11.64 8.09-20.36 9.8m21.93-11.64c-3.41.69-7.16 1.26-11.16 1.71.88-1.58 1.56-3.27 2-5.04 4.12-.2 7.95-.45 11.4-.74-.51 1.41-1.26 2.78-2.24 4.07m2.53-.54c-.16.04-.33.07-.49.11.77-1.22 1.35-2.49 1.75-3.78 4.28-.4 7.69-.86 10.12-1.36.84-.18 1.55-.35 2.15-.53-2 2.03-6.75 4.01-13.53 5.57m1.68-5.37c.14-.79.22-1.59.22-2.4 0-.7-.06-1.4-.17-2.09 9.19.89 11.81 1.84 12.52 2.24-.72.41-3.34 1.36-12.57 2.25"/><path d="m49.47 41.85-.57-.67.64-.64-1.44-2.88-.6.26v1.86l-.97 1.05v-1.22l-1.09-2.15 1.05-2.05 1.76.51 1.31 2.5-1.03-3.65 1.41-2.63 1.41 2.56-.9 3.71c.4-.53 1.03-2.37 1.03-2.37l2.1-.53 1.02 1.99s-.47.81-.96 2.04v1.18l-.85-.93-.52-1.89-.48-.2-1.42 2.78.59.73-.57.61.32 1.21-.78 1.92-.79-1.95.32-1.18ZM118.46 12.66h4.49V41.6h-4.49z"/></svg>