<svg width="32" height="32" viewBox="0 0 32 32" fill="none" xmlns="http://www.w3.org/2000/svg">
<rect width="32" height="32" fill="#DFFF1F"/>
<path d="M2 2.1174H3.56266V29.8533H2V2.1174Z" fill="#0A0A0A"/>
<path d="M8.76214 15.8532C9.50124 16.0294 9.818 16.7631 9.818 17.8197V27.2411C9.818 28.9434 9.03667 29.8533 7.81187 29.8533H5.55235V2.1174H7.83299C8.99443 2.1174 9.73353 2.9979 9.73353 4.61216V13.7694C9.73353 14.8553 9.48012 15.501 8.76214 15.7065V15.8532ZM7.64294 4.08386H7.11501V14.914H7.64294C7.98081 14.914 8.17087 14.6205 8.17087 14.0335V4.90566C8.17087 4.34801 7.98081 4.08386 7.64294 4.08386ZM7.62182 16.7338H7.11501V27.8868H7.62182C8.02305 27.8868 8.23422 27.5639 8.23422 26.9182V17.673C8.23422 17.0566 8.02305 16.7338 7.62182 16.7338Z" fill="#0A0A0A"/>
<path d="M14.7665 21.782L14.9566 15.1195L15.569 2.1174H17.7441V29.8533H16.3292L16.3503 20.0797L16.4559 8.98533H16.3292L15.4845 29.8533H13.8796L13.0561 8.98533H12.9294L13.0349 20.0797V29.8533H11.6412V2.1174H13.8585L14.4498 15.1195L14.6398 21.782H14.7665Z" fill="#0A0A0A"/>
<path d="M21.7793 2C23.173 2 23.9121 3.0566 23.9121 4.99371V26.9476C23.9121 28.914 23.1519 30 21.7793 30C20.3856 30 19.6465 28.914 19.6465 26.9476V4.99371C19.6465 3.0566 20.3856 2 21.7793 2ZM22.3072 27.153V4.81761C22.3072 4.28931 22.1172 3.93711 21.7793 3.93711C21.4414 3.93711 21.2514 4.25996 21.2514 4.81761V27.153C21.2514 27.7107 21.4625 28.0629 21.7793 28.0629C22.096 28.0629 22.3072 27.6813 22.3072 27.153Z" fill="#0A0A0A"/>
<path d="M30 16.4403V27.153C30 29.0021 29.282 30 27.9094 30C26.5368 30 25.7766 28.914 25.7766 26.9476V4.99371C25.7766 3.0566 26.5368 2 27.9094 2C29.282 2 30 2.96855 30 4.78826V14.2096H28.4162V4.81761C28.4162 4.28931 28.2473 3.93711 27.9094 3.93711C27.5927 3.93711 27.3815 4.25996 27.3815 4.81761V27.153C27.3815 27.7107 27.5927 28.0629 27.9094 28.0629C28.2473 28.0629 28.4162 27.6813 28.4162 27.153V16.4403H30Z" fill="#0A0A0A"/>
</svg>
