<svg width="32" height="32" viewBox="0 0 32 32" fill="none" xmlns="http://www.w3.org/2000/svg"><style>path{fill:black}@media (prefers-color-scheme:dark){path{fill:white}}</style><path d="M0 .134h2.06v31.698H0V.134ZM7.686 15.832c.975.201 1.393 1.04 1.393 2.248v10.767c0 1.945-1.03 2.985-2.646 2.985h-2.98V.134h3.008c1.532 0 2.506 1.006 2.506 2.851v10.466c0 1.24-.334 1.979-1.28 2.214v.167ZM6.21 2.382h-.696v12.377h.696c.446 0 .697-.335.697-1.006V3.32c0-.638-.251-.94-.697-.94Zm-.027 14.457h-.669v12.746h.669c.529 0 .807-.37.807-1.107V17.912c0-.704-.278-1.073-.807-1.073ZM14.373 22.608l.251-7.614.808-14.86H18.3v31.698h-1.866l.028-11.17.14-12.679h-.168l-1.114 23.85h-2.116l-1.086-23.85h-.167l.139 12.68v11.17h-1.838V.133h2.924l.78 14.86.25 7.614h.168ZM22.39 0c1.838 0 2.813 1.208 2.813 3.421v25.09C25.203 30.76 24.2 32 22.39 32c-1.838 0-2.812-1.241-2.812-3.488V3.422c0-2.214.974-3.422 2.812-3.422Zm.696 28.746V3.22c0-.604-.25-1.006-.696-1.006-.445 0-.696.369-.696 1.006v25.526c0 .638.279 1.04.696 1.04.418 0 .696-.436.696-1.04ZM32 16.503v12.243C32 30.86 31.053 32 29.243 32s-2.812-1.241-2.812-3.488V3.422C26.43 1.207 27.433 0 29.243 0 31.053 0 32 1.107 32 3.187v10.767h-2.088V3.22c0-.604-.223-1.006-.669-1.006-.417 0-.696.369-.696 1.006v25.526c0 .638.279 1.04.696 1.04.446 0 .669-.436.669-1.04V16.503H32Z" fill="#fff"/></svg>